<svg width="24" height="24" viewBox="0 0 24 24" fill="#3F58CF" xmlns="http://www.w3.org/2000/svg">
<path d="M20.2226 9.21267C20.8015 8.33804 21.2236 7.34698 21.4941 6.24219C21.7619 5.13739 21.8972 4.01906 21.8972 2.8899V2.00173H16.1728V2.8899C16.1728 4.21132 15.9645 5.32153 15.5479 6.22323C15.1312 7.12765 14.5144 7.81272 13.692 8.28389C13.5649 8.357 13.4296 8.42469 13.2943 8.48697C12.4774 8.85795 11.5305 8.85795 10.7081 8.4951C10.562 8.43011 10.4186 8.35971 10.2834 8.28118C9.45012 7.81002 8.83332 7.12494 8.42752 6.22052C8.02443 5.31882 7.82154 4.20861 7.82154 2.88719V1.99902H2.10254V2.88719C2.10254 4.01906 2.2378 5.13739 2.50563 6.23948C2.77345 7.34427 3.19007 8.33534 3.75548 9.20996C4.31818 10.0873 5.0459 10.794 5.93324 11.3302C6.27952 11.5387 6.65014 11.7066 7.04782 11.8338C6.64473 11.9692 6.26599 12.1425 5.9143 12.3592C5.01344 12.9116 4.28842 13.6508 3.73924 14.5823C3.18736 15.5111 2.77886 16.5346 2.51104 17.653C2.24051 18.7713 2.10795 19.895 2.10795 21.0269V21.9963H7.83236V21.0269C7.83236 19.7082 8.03255 18.5763 8.43834 17.6313C8.84143 16.689 9.46095 15.9606 10.2942 15.4488C10.3131 15.438 10.3321 15.4271 10.351 15.4163C11.3844 14.8016 12.6911 14.8016 13.7083 15.4407C13.7137 15.4434 13.7191 15.4461 13.7218 15.4515C14.528 15.9633 15.1394 16.6917 15.556 17.634C15.9726 18.5763 16.1809 19.7082 16.1809 21.0296V21.999H21.9053V21.0296C21.9053 19.8978 21.77 18.774 21.5022 17.6557C21.2344 16.5373 20.8097 15.5138 20.2307 14.585C19.6518 13.6562 18.9214 12.9143 18.034 12.3619C17.6878 12.148 17.3171 11.9719 16.9222 11.8393C17.3171 11.712 17.6878 11.5441 18.034 11.3329C18.9214 10.794 19.6518 10.0873 20.2307 9.21267H20.2226Z" />
</svg>
