<svg width="240" height="80" viewBox="0 0 118 40" fill="#3F58CF" xmlns="http://www.w3.org/2000/svg">
<path d="M13.5972 29.4594C12.2511 29.4594 10.9921 29.2044 9.82757 28.6943C8.66061 28.1843 7.64375 27.4893 6.77942 26.6067C5.91266 25.7241 5.23476 24.6841 4.74085 23.4915C4.24695 22.2989 4 21.0413 4 19.7237C4 18.4061 4.24695 17.1185 4.74085 15.9385C5.23476 14.7559 5.91266 13.7183 6.77942 12.8233C7.64617 11.9282 8.66061 11.2256 9.82757 10.7156C10.9945 10.2056 12.2511 9.96305 13.5972 9.98805C15.3283 10.0131 16.9286 10.4431 18.3958 11.2756C19.863 12.1107 21.0058 13.4208 21.8241 15.2109L17.6017 17.5986C17.1925 16.7785 16.6454 16.136 15.9602 15.6759C15.275 15.2159 14.4858 14.9859 13.5972 14.9859C12.7547 14.9859 11.9969 15.1959 11.3238 15.6209C10.6507 16.0435 10.1157 16.6085 9.71862 17.3186C9.32157 18.0286 9.12303 18.8287 9.12303 19.7262C9.12303 20.5713 9.32157 21.3563 9.71862 22.0764C10.1157 22.7964 10.6507 23.3765 11.3238 23.8115C11.9969 24.2465 12.7547 24.4641 13.5972 24.4641C14.4882 24.4641 15.275 24.229 15.9602 23.754C16.6454 23.2815 17.1925 22.6464 17.6017 21.8514L21.8241 24.239C21.0058 26.0292 19.863 27.3418 18.3958 28.1743C16.9286 29.0069 15.3307 29.4369 13.5972 29.4619V29.4594Z" />
<path d="M41.7231 14.7059C40.8805 13.2508 39.7257 12.0932 38.2585 11.2357C36.7913 10.3781 35.1304 9.94806 33.2807 9.94806C31.431 9.94806 29.8113 10.3906 28.3562 11.2732C26.9011 12.1557 25.7463 13.3383 24.8916 14.8184C24.0394 16.2985 23.6109 17.9211 23.6109 19.6862C23.6109 21.4514 23.9886 23.114 24.7464 24.5916C25.5042 26.0717 26.5452 27.2543 27.8671 28.1368C29.1891 29.0194 30.7168 29.4619 32.4479 29.4619C33.7674 29.4619 34.9198 29.2044 35.9003 28.6844V23.669C35.8156 23.7315 35.7309 23.789 35.6413 23.844C34.9561 24.2791 34.1668 24.4966 33.2783 24.4966C32.3897 24.4966 31.6368 24.2791 30.9516 23.844C30.2664 23.409 29.7265 22.8315 29.3295 22.1089C28.9324 21.3889 28.7339 20.5913 28.7339 19.7212C28.7339 18.8512 28.9324 18.0536 29.3295 17.3336C29.7265 16.6135 30.2689 16.0335 30.9516 15.5985C31.6368 15.1634 32.414 14.9459 33.2783 14.9459C34.1426 14.9459 34.9561 15.1634 35.6413 15.5985C36.3265 16.0335 36.8688 16.6135 37.2634 17.3336C37.6605 18.0536 37.859 18.8512 37.859 19.7212V28.9744H42.982V19.6837C42.982 17.8186 42.5608 16.1585 41.7206 14.7034L41.7231 14.7059Z" />
<path d="M58.7337 19.5737C58.7337 20.4438 58.5594 21.2338 58.2107 21.9414C57.8621 22.6514 57.3803 23.204 56.7678 23.6015C56.1528 23.999 55.4628 24.199 54.6929 24.199C53.417 24.199 52.4437 23.7815 51.7706 22.949C51.0975 22.1164 50.761 21.0263 50.761 19.6837V10.5056H45.7106V19.8712C45.7106 21.6864 46.006 23.299 46.5943 24.7016C47.1826 26.1067 48.0906 27.2093 49.318 28.0018C50.5431 28.7969 52.1193 29.1944 54.044 29.1944C55.1505 29.1944 56.102 28.9944 56.8937 28.5968C57.6781 28.2043 58.3148 27.6393 58.8063 26.9067V27.4043C58.8063 28.5493 58.6126 29.5494 58.2301 30.407C57.8451 31.2645 57.298 31.9371 56.5886 32.4221C55.8792 32.9071 55.0076 33.1497 53.9738 33.1497C52.819 33.1497 51.8505 32.8746 51.0685 32.3296C50.2865 31.7821 49.6909 31.1095 49.2817 30.3145L45.0593 32.7021C45.8777 34.4198 47.0495 35.7298 48.5772 36.6374C50.1049 37.545 51.928 38 54.044 38C56.0148 38 57.7435 37.56 59.2203 36.6749C60.6996 35.7923 61.8545 34.5473 62.6825 32.9446C63.5129 31.342 63.9269 29.4694 63.9269 27.3293V10.5056H58.7313V19.5737H58.7337Z" />
<path d="M67.5053 2C70.3355 2 72.6283 4.37266 72.6283 7.29787V28.9744H67.5053V2Z" />
<path d="M93.5659 20.7838V19.2162C93.5659 17.5236 93.2125 15.971 92.5007 14.5509C91.7913 13.1333 90.7744 11.9957 89.4525 11.1381C88.1282 10.2781 86.5157 9.85055 84.6152 9.85055C82.7146 9.85055 81.1772 10.2906 79.7802 11.1756C78.3857 12.0557 77.2986 13.2408 76.5142 14.7184C75.7322 16.1985 75.3424 17.8236 75.3424 19.5887C75.3424 21.5539 75.7636 23.2765 76.6062 24.7566C77.4463 26.2367 78.6084 27.3943 80.0877 28.2268C81.567 29.0594 83.2327 29.4769 85.0849 29.4769C86.937 29.4769 88.6511 29.0219 90.082 28.1143C91.5129 27.2093 92.6145 25.9192 93.3844 24.254L89.4961 22.2239C88.6245 23.8565 86.9418 24.9616 85.0122 24.9616C82.5548 24.9616 80.5041 23.1715 80.0078 20.7863C79.9836 20.6613 79.9594 20.5338 79.9449 20.4013C79.9086 20.1613 79.894 19.9137 79.894 19.6662C79.894 18.1661 80.4993 16.8085 81.4702 15.8485C81.7825 15.4734 82.165 15.1684 82.6178 14.9284C82.9131 14.7734 83.2351 14.6584 83.5814 14.5834C83.8937 14.5134 84.2278 14.4809 84.5813 14.4809C85.3028 14.4809 85.9395 14.6234 86.4939 14.9084C87.0459 15.1959 87.4987 15.5934 87.8473 16.1035C88.196 16.611 88.4066 17.1886 88.4792 17.8386H82.4677V20.7813L93.5684 20.7863L93.5659 20.7838Z" />
<path d="M112.499 17.1686C113.017 16.361 113.395 15.4459 113.637 14.4259C113.877 13.4058 113.998 12.3732 113.998 11.3307V10.5106H108.875V11.3307C108.875 12.5507 108.688 13.5758 108.315 14.4084C107.942 15.2434 107.39 15.876 106.654 16.311C106.541 16.3785 106.42 16.441 106.298 16.4985C105.567 16.841 104.72 16.841 103.984 16.506C103.853 16.446 103.725 16.381 103.604 16.3085C102.858 15.8735 102.306 15.2409 101.943 14.4059C101.582 13.5733 101.401 12.5482 101.401 11.3282V10.5081H96.2776V11.3282C96.2776 12.3732 96.3986 13.4058 96.6383 14.4234C96.878 15.4434 97.2509 16.3585 97.7569 17.1661C98.2605 17.9761 98.9117 18.6287 99.7058 19.1237C100.016 19.3162 100.347 19.4712 100.703 19.5887C100.343 19.7137 100.004 19.8737 99.6889 20.0738C98.8827 20.5838 98.2338 21.2663 97.7423 22.1264C97.2484 22.984 96.8829 23.929 96.6432 24.9616C96.4011 25.9942 96.2824 27.0317 96.2824 28.0768V28.9719H101.405V28.0768C101.405 26.8592 101.585 25.8142 101.948 24.9416C102.309 24.0715 102.863 23.399 103.609 22.9265C103.626 22.9165 103.643 22.9065 103.66 22.8965C104.584 22.3289 105.754 22.3289 106.664 22.919C106.669 22.9215 106.674 22.924 106.676 22.929C107.398 23.4015 107.945 24.074 108.318 24.9441C108.691 25.8142 108.877 26.8592 108.877 28.0793V28.9744H114V28.0793C114 27.0342 113.879 25.9967 113.639 24.9641C113.4 23.9315 113.019 22.9865 112.501 22.1289C111.983 21.2713 111.33 20.5863 110.535 20.0763C110.226 19.8787 109.894 19.7162 109.54 19.5937C109.894 19.4762 110.226 19.3212 110.535 19.1262C111.33 18.6287 111.983 17.9761 112.501 17.1686H112.499Z" />
</svg>
